<svg id="Layer_5" enable-background="new 0 0 64 64" height="512" viewBox="0 0 64 64" width="512" xmlns="http://www.w3.org/2000/svg"><g><path d="m15 53h2v2h-2z"/><path d="m22 51h-2c-.552 0-1 .448-1 1v9h4v-9c0-.552-.448-1-1-1z"/><circle cx="21" cy="48" r="1"/><path d="m25 53h6v8h-6z"/><path d="m27 38c0-2.757-2.243-5-5-5s-5 2.243-5 5v13h.184c.227-.636.655-1.173 1.217-1.529-.248-.437-.401-.934-.401-1.471 0-1.654 1.346-3 3-3s3 1.346 3 3c0 .537-.153 1.034-.401 1.471.562.356.99.893 1.217 1.529h2.184z"/><path d="m7 57h2v4h-2z"/><path d="m32 21c4.963 0 9-4.037 9-9s-4.037-9-9-9-9 4.037-9 9 4.037 9 9 9zm1-8h-2c-1.654 0-3-1.346-3-3s1.346-3 3-3v-2h2v2c1.654 0 3 1.346 3 3h-2c0-.552-.448-1-1-1h-2c-.552 0-1 .448-1 1s.448 1 1 1h2c1.654 0 3 1.346 3 3s-1.346 3-3 3v2h-2v-2c-1.654 0-3-1.346-3-3h2c0 .552.448 1 1 1h2c.552 0 1-.448 1-1s-.448-1-1-1z"/><path d="m3 53h2v8h-2z"/><path d="m15 57h2v4h-2z"/><path d="m11 53h2v8h-2z"/><path d="m33 53h6v8h-6z"/><path d="m55 57h2v4h-2z"/><path d="m51 29h-38v22h1 1v-13c0-3.859 3.141-7 7-7s7 3.141 7 7v13h10.184c.227-.636.655-1.173 1.217-1.529-.248-.437-.401-.934-.401-1.471 0-1.654 1.346-3 3-3s3 1.346 3 3c0 .537-.153 1.034-.401 1.471.839.532 1.401 1.464 1.401 2.529v3h2v-4h2zm-19 5h7v3h-7zm0 8v-3h7v3zm16 0h-7v-3h7zm0-5h-7v-3h7z"/><path d="m51 53h2v8h-2z"/><path d="m44 51h-2c-.552 0-1 .448-1 1v9h4v-9c0-.552-.448-1-1-1z"/><path d="m59 53h2v8h-2z"/><path d="m42.072 16.406c-1.702 3.877-5.573 6.594-10.072 6.594s-8.37-2.717-10.072-6.594l-14.793 10.032c-.084.058-.135.153-.135.255 0 .169.138.307.307.307h49.387c.168 0 .306-.138.306-.307 0-.103-.051-.197-.135-.255z"/><path d="m47 57h2v4h-2z"/><circle cx="43" cy="48" r="1"/></g></svg>